<?xml version="1.0" standalone="no"?><!DOCTYPE svg PUBLIC "-//W3C//DTD SVG 1.1//EN" "http://www.w3.org/Graphics/SVG/1.1/DTD/svg11.dtd"><svg t="1759738789170" class="icon" viewBox="0 0 1024 1024" version="1.1" xmlns="http://www.w3.org/2000/svg" p-id="1306" xmlns:xlink="http://www.w3.org/1999/xlink" width="200" height="200"><path d="M478.0032 753.1008H165.2736c-19.0464-0.01024-34.47808-15.33952-34.5088-34.26304l0.1024-516.83328h658.70848c18.96448 0 34.31424 15.53408 34.31424 34.58048v174.22336c0 19.01568 15.5136 34.43712 34.6624 34.43712 19.13856 0 34.65216-15.42144 34.65216-34.43712V236.58496C893.2864 179.6096 846.9504 133.3248 789.61664 133.12H130.85696C92.63104 133.05856 61.57312 163.77856 61.44 201.76896v517.0688c0.1024 56.9344 46.53056 103.07584 103.8336 103.15776h312.7296c19.13856 0 34.65216-15.42144 34.65216-34.44736 0-19.02592-15.5136-34.44736-34.65216-34.44736" fill="currentColor" p-id="1307"></path><path d="M373.37088 477.55264H234.73152c-19.1488 0-34.6624 15.42144-34.6624 34.44736 0 19.02592 15.52384 34.44736 34.6624 34.44736h138.63936c19.13856 0 34.65216-15.42144 34.65216-34.44736 0-19.02592-15.5136-34.44736-34.65216-34.44736m0 137.7792H234.73152c-19.1488 0-34.6624 15.42144-34.6624 34.44736 0 19.01568 15.52384 34.43712 34.6624 34.43712h138.63936c19.13856 0 34.65216-15.42144 34.65216-34.43712 0-19.02592-15.5136-34.44736-34.65216-34.44736M512 339.7632H234.73152c-19.1488 0-34.6624 15.43168-34.6624 34.44736 0 19.02592 15.52384 34.44736 34.6624 34.44736H512c19.1488 0 34.6624-15.42144 34.6624-34.44736 0-19.01568-15.52384-34.43712-34.6624-34.43712m242.60608 482.2016c-76.45184 0-138.62912-61.78816-138.62912-137.76896 0-25.48736 7.45472-49.0496 19.65056-69.53984l188.95872 187.79136a137.44128 137.44128 0 0 1-69.98016 19.52768m0-275.5584c76.46208 0 138.63936 61.7984 138.63936 137.7792 0 25.4976-7.45472 49.0496-19.6608 69.53984L684.6464 565.97504a137.44128 137.44128 0 0 1 69.96992-19.52768m0-68.89472c-114.688 0-207.94368 92.69248-207.94368 206.66368C546.6624 798.18752 639.92832 890.88 754.60608 890.88 869.29408 890.88 962.56 798.18752 962.56 684.21632c0-113.9712-93.26592-206.66368-207.95392-206.66368" fill="currentColor" p-id="1308"></path></svg>