<?xml version="1.0" standalone="no"?><!DOCTYPE svg PUBLIC "-//W3C//DTD SVG 1.1//EN" "http://www.w3.org/Graphics/SVG/1.1/DTD/svg11.dtd"><svg t="1759897837149" class="icon" viewBox="0 0 1024 1024" version="1.1" xmlns="http://www.w3.org/2000/svg" p-id="1590" xmlns:xlink="http://www.w3.org/1999/xlink" width="200" height="200"><path d="M512 92q178.14 4.68 296.73 123.27T932 512q-4.68 178.14-123.27 296.73T512 932q-178.14-4.68-296.73-123.27T92 512q4.68-178.14 123.27-296.73T512 92z m0 369.39l-97.5-97.5q-11.25-11.25-25.77-11.25t-25.32 10.77-10.77 25.32 11.25 25.77l97.5 97.5-97.5 97.5q-11.25 11.25-11.25 25.77t10.77 25.32 25.32 10.77 25.77-11.25l97.5-97.5 97.5 97.5q15 14.07 34.68 8.91t24.84-24.84-8.91-34.68L562.61 512l97.5-97.5q11.25-11.25 11.25-25.77t-10.77-25.32-25.32-10.77-25.77 11.25z" p-id="1591" fill="currentColor"></path></svg>