<?xml version="1.0" standalone="no"?><!DOCTYPE svg PUBLIC "-//W3C//DTD SVG 1.1//EN" "http://www.w3.org/Graphics/SVG/1.1/DTD/svg11.dtd"><svg t="1759897842881" class="icon" viewBox="0 0 1024 1024" version="1.1" xmlns="http://www.w3.org/2000/svg" p-id="1754" xmlns:xlink="http://www.w3.org/1999/xlink" width="200" height="200"><path d="M512 81.92c121.60032 3.19968 222.88032 45.28032 303.84 126.24S938.88032 390.39968 942.08 512c-3.19968 121.60032-45.28032 222.88032-126.24 303.84S633.60032 938.88032 512 942.08c-121.60032-3.19968-222.88032-45.28032-303.84-126.24S85.11968 633.60032 81.92 512c3.19968-121.60032 45.28032-222.88032 126.24-303.84S390.39968 85.11968 512 81.92z m-53.76 514.56l-95.04-95.04c-7.68-7.03968-16.48032-10.56-26.4-10.56-9.91968 0-18.55968 3.67968-25.92 11.04-7.36032 7.36032-11.04 15.84-11.04 25.44s3.52032 18.24 10.56 25.92l121.92 121.92c7.03968 7.03968 15.67968 10.56 25.92 10.56 10.24032 0 18.88032-3.52032 25.92-10.56l252.48-252.48c9.6-9.6 12.64032-21.28032 9.12-35.04-3.52032-13.75968-12.16032-22.39968-25.92-25.92-13.75968-3.52032-25.44-0.48-35.04 9.12L458.24 596.48z" p-id="1755" fill="currentColor"></path></svg>