<?xml version="1.0" standalone="no"?><!DOCTYPE svg PUBLIC "-//W3C//DTD SVG 1.1//EN" "http://www.w3.org/Graphics/SVG/1.1/DTD/svg11.dtd"><svg t="1760187262851" class="icon" viewBox="0 0 1024 1024" version="1.1" xmlns="http://www.w3.org/2000/svg" p-id="1641" xmlns:xlink="http://www.w3.org/1999/xlink" width="200" height="200"><path d="M554.688 687.808V493.504l-0.32-5.184a42.24 42.24 0 0 0-42.304-36.288 42.24 42.24 0 0 0-42.368 36.288l-0.32 5.184v194.304l0.32 5.184a42.24 42.24 0 0 0 42.368 36.352 42.24 42.24 0 0 0 42.304-36.352l0.32-5.184zM512 396.672a51.2 51.2 0 1 0 0-102.4 51.2 51.2 0 0 0 0 102.4z" p-id="1642" fill="currentColor"></path><path d="M512 185.6a326.4 326.4 0 1 0 0 652.8A326.4 326.4 0 0 0 512 185.6zM96 512a416 416 0 1 1 832 0 416 416 0 0 1-832 0z" p-id="1643" fill="currentColor"></path></svg>