<?xml version="1.0" standalone="no"?><!DOCTYPE svg PUBLIC "-//W3C//DTD SVG 1.1//EN" "http://www.w3.org/Graphics/SVG/1.1/DTD/svg11.dtd"><svg t="1759756521143" class="icon" viewBox="0 0 1024 1024" version="1.1" xmlns="http://www.w3.org/2000/svg" p-id="1701" xmlns:xlink="http://www.w3.org/1999/xlink" width="200" height="200"><path d="M640 192h192v64h-64v576l-64 64H256l-64-64V256H128V192h192V128a64 64 0 0 1 64-64h192a64 64 0 0 1 64 64v64zM576 128H384v64h192V128zM256 832h448V256H256v576z m128-512H320v448h64V320z m64 0h64v448H448V320z m128 0h64v448H576V320z" fill="currentColor" p-id="1702"></path></svg>